<?xml version="1.0" standalone="no"?>
<!DOCTYPE svg PUBLIC "-//W3C//DTD SVG 20010904//EN"
 "http://www.w3.org/TR/2001/REC-SVG-20010904/DTD/svg10.dtd">
<svg version="1.0" xmlns="http://www.w3.org/2000/svg"
 width="1536.000000pt" height="1024.000000pt" viewBox="0 0 1536.000000 1024.000000"
 preserveAspectRatio="xMidYMid meet">

<g transform="translate(0.000000,1024.000000) scale(0.100000,-0.100000)"
fill="#000000" stroke="none">
<path d="M7530 9617 c-144 -43 -248 -125 -305 -241 -32 -65 -67 -236 -59 -285
54 -328 126 -528 230 -638 l50 -54 -30 -22 c-64 -47 -114 -70 -241 -108 -71
-21 -170 -55 -220 -74 -84 -33 -95 -41 -163 -115 -80 -87 -174 -229 -253 -385
-29 -55 -86 -152 -129 -215 -114 -170 -223 -356 -256 -435 -24 -59 -29 -84
-29 -160 0 -78 3 -96 25 -135 45 -80 164 -139 405 -200 l110 -28 12 -139 c7
-76 13 -183 13 -238 1 -82 5 -108 24 -150 42 -92 110 -151 193 -170 18 -3 35
-11 39 -16 3 -5 -2 -67 -12 -137 -15 -102 -18 -196 -18 -477 0 -538 13 -1384
24 -1535 5 -74 12 -172 15 -218 3 -46 12 -114 20 -150 7 -37 28 -166 45 -287
33 -231 70 -425 96 -497 8 -24 37 -82 64 -129 28 -48 50 -96 50 -108 0 -11
-10 -40 -21 -64 -27 -56 -22 -81 34 -146 27 -31 50 -72 61 -108 10 -32 28 -74
40 -93 12 -19 26 -44 30 -54 11 -32 -13 -125 -57 -221 -38 -82 -42 -98 -45
-185 -3 -87 -2 -97 17 -114 35 -31 154 -56 273 -56 123 0 195 14 234 45 25 20
28 30 32 91 3 51 9 74 23 87 21 20 26 75 20 230 -3 80 -1 91 22 126 30 45 57
121 57 160 0 15 9 54 20 86 28 81 26 114 -11 165 -18 24 -42 66 -54 94 -30 67
-22 136 22 192 66 85 70 128 18 214 -67 111 -69 117 -76 340 -4 113 -10 223
-13 245 l-7 40 14 -30 c8 -16 28 -52 46 -79 35 -57 38 -87 16 -191 -21 -103
-10 -136 64 -183 33 -20 73 -45 90 -54 31 -17 31 -18 31 -95 0 -43 4 -93 10
-112 5 -18 12 -155 15 -305 7 -299 15 -348 66 -390 61 -51 215 -58 321 -13 74
31 128 155 128 289 -1 78 -25 241 -50 338 -12 47 -23 108 -24 136 -1 46 3 55
37 93 34 37 37 46 37 98 0 46 6 65 31 105 46 71 78 157 79 207 0 31 -9 59 -31
98 -29 51 -31 60 -25 119 9 83 -7 176 -51 303 l-36 105 6 285 c6 289 15 432
42 641 9 63 20 165 26 225 5 61 17 136 26 167 12 45 13 67 5 105 -6 26 -14
113 -18 193 -3 80 -12 172 -20 205 -7 33 -20 105 -29 160 -9 55 -19 114 -22
130 -4 25 0 33 20 44 14 7 31 24 38 37 10 20 20 24 55 24 23 0 56 8 73 17 29
17 31 17 55 -2 14 -11 81 -61 148 -112 68 -51 145 -111 172 -133 54 -47 94
-51 111 -12 14 31 26 28 85 -20 123 -100 266 -197 292 -198 28 0 58 31 58 61
0 10 -29 38 -65 64 -36 25 -65 50 -65 54 0 4 -45 38 -100 75 -98 66 -138 105
-121 116 5 3 12 21 16 41 l7 36 -84 58 c-45 32 -100 67 -121 78 -24 12 -43 32
-52 54 -8 20 -15 37 -15 39 0 2 41 24 91 50 171 88 205 145 174 289 -9 44 -28
114 -41 156 -22 68 -23 82 -13 127 11 44 10 57 -9 109 -12 32 -47 144 -77 248
-31 105 -87 269 -125 365 -38 96 -87 233 -110 303 -75 238 -128 311 -274 382
-50 25 -107 54 -126 65 -26 15 -53 20 -106 20 -176 0 -286 38 -362 125 -56 63
-54 90 13 173 21 26 44 72 56 114 20 65 21 86 16 237 -5 137 -10 177 -28 228
-12 34 -26 60 -31 57 -4 -3 -5 1 -3 9 3 7 -3 23 -13 35 -11 12 -37 52 -58 88
-42 71 -133 163 -193 193 -106 54 -264 65 -391 28z m-343 -519 c-3 -8 -6 -5
-6 6 -1 11 2 17 5 13 3 -3 4 -12 1 -19z m20 -110 c-3 -8 -6 -5 -6 6 -1 11 2
17 5 13 3 -3 4 -12 1 -19z m-292 -1725 c-7 -21 -20 -55 -29 -75 -9 -20 -13
-43 -11 -50 8 -20 54 -45 96 -53 33 -6 41 -3 77 29 l40 36 1 -106 c1 -58 2
-109 3 -112 0 -4 0 -10 -1 -14 -1 -6 -274 61 -323 81 -33 12 -33 14 -10 49 11
15 52 78 93 139 41 62 75 113 76 113 1 0 -4 -17 -12 -37z m1590 -703 c46 -36
40 -39 -11 -5 -20 14 -40 22 -43 19 -3 -4 0 -9 7 -11 20 -7 14 -22 -7 -16 -13
3 -17 11 -14 24 7 27 24 24 68 -11z m-7 -55 c-3 -3 -9 2 -12 12 -6 14 -5 15 5
6 7 -7 10 -15 7 -18z m97 -11 c17 -15 24 -23 17 -19 -7 4 -23 0 -35 -8 -20
-13 -25 -13 -46 4 l-23 19 31 -6 c25 -5 31 -3 31 10 0 13 -5 16 -21 11 -15 -5
-19 -4 -15 4 11 17 28 13 61 -15z m29 -82 c-9 -2 -21 2 -28 9 -8 9 -8 10 1 5
9 -5 11 -2 7 8 -3 9 -12 12 -22 8 -14 -5 -15 -4 -2 11 14 15 17 14 37 -11 20
-23 21 -28 7 -30z m56 17 c21 -17 36 -37 33 -44 -7 -20 -34 -27 -49 -14 -16
13 -18 29 -4 29 6 0 10 -7 10 -15 0 -8 5 -15 10 -15 21 0 8 36 -20 55 -27 18
-39 35 -24 35 3 0 23 -14 44 -31z m94 -74 c16 -14 27 -27 24 -30 -3 -3 -11 1
-18 10 -9 11 -17 12 -30 5 -13 -7 -21 -6 -26 2 -4 6 -3 8 4 4 6 -3 13 -2 17 4
3 5 1 10 -4 10 -6 0 -11 5 -11 10 0 16 13 12 44 -15z m157 -12 c13 -16 12 -17
-3 -4 -10 7 -18 15 -18 17 0 8 8 3 21 -13z m-155 -41 c1 -12 -3 -19 -8 -16 -5
3 -7 12 -4 19 3 8 1 16 -5 19 -5 2 -4 3 3 2 7 -1 14 -12 14 -24z m68 -1 c13
-14 14 -21 5 -27 -8 -4 -10 -3 -5 5 4 6 0 14 -8 17 -9 3 -16 10 -16 15 0 13 5
11 24 -10z m57 -48 c13 -17 13 -17 -6 -3 -11 8 -22 16 -24 17 -2 2 0 3 6 3 6
0 17 -8 24 -17z m-26 -23 c3 -5 1 -10 -4 -10 -6 0 -11 5 -11 10 0 6 2 10 4 10
3 0 8 -4 11 -10z m220 -10 c3 -6 -1 -7 -9 -4 -18 7 -21 14 -7 14 6 0 13 -4 16
-10z m-40 -83 c6 -5 1 -5 -10 1 -11 6 -38 27 -60 47 l-40 37 50 -38 c28 -21
55 -42 60 -47z m109 -86 c-4 -5 -84 53 -84 61 0 4 20 -7 44 -25 23 -17 42 -34
40 -36z m39 50 c15 -8 27 -18 27 -23 0 -12 -3 -11 -41 18 -35 27 -33 28 14 5z
m101 -69 c3 -5 -1 -9 -9 -9 -8 0 -12 4 -9 9 3 4 7 8 9 8 2 0 6 -4 9 -8z m-4
-72 l25 -21 -27 12 c-16 7 -28 15 -28 19 0 4 -12 12 -26 19 -23 10 -26 10 -20
-4 3 -9 2 -13 -3 -10 -6 3 -9 14 -8 24 1 17 2 17 32 -1 16 -10 41 -27 55 -38z
m194 -179 c-2 -3 -12 3 -22 13 -16 17 -16 18 5 5 12 -7 20 -15 17 -18z m-13
-28 c13 -16 12 -17 -3 -4 -10 7 -18 15 -18 17 0 8 8 3 21 -13z m209 -120 c0
-7 -39 17 -46 28 -3 6 5 3 20 -6 14 -10 26 -19 26 -22z"/>
</g>
</svg>
