<?xml version="1.0" standalone="no"?>
<!DOCTYPE svg PUBLIC "-//W3C//DTD SVG 20010904//EN"
 "http://www.w3.org/TR/2001/REC-SVG-20010904/DTD/svg10.dtd">
<svg version="1.0" xmlns="http://www.w3.org/2000/svg"
 width="267.000000pt" height="267.000000pt" viewBox="0 0 267.000000 267.000000"
 preserveAspectRatio="xMidYMid meet">

<g transform="translate(0.000000,267.000000) scale(0.100000,-0.100000)"
fill="#000000" stroke="none">
<path d="M0 2590 l0 -80 64 0 c36 0 68 5 71 11 4 6 13 8 19 6 7 -3 32 3 56 14
42 19 43 19 76 -1 31 -20 35 -20 63 -6 35 19 63 20 78 5 8 -8 17 -7 32 3 17
10 25 10 42 0 17 -11 23 -11 36 0 13 10 17 10 20 1 7 -21 87 -16 114 6 19 15
34 18 76 14 35 -4 53 -2 53 5 0 6 -19 13 -42 15 -37 3 -35 4 15 5 31 1 57 -2
57 -7 0 -5 13 -14 29 -19 42 -15 101 4 101 31 0 20 1 20 25 -3 20 -19 27 -21
39 -10 9 6 32 12 53 13 21 0 41 5 45 11 5 8 11 7 20 -2 13 -13 58 -17 58 -4 0
5 42 13 93 19 75 9 97 8 120 -3 24 -13 27 -13 27 1 0 12 15 15 79 15 70 0 79
-2 84 -20 6 -25 62 -28 75 -4 8 14 21 15 85 9 43 -4 77 -11 77 -16 0 -13 38
-11 42 2 5 15 106 41 121 32 6 -4 26 -6 44 -5 29 2 33 0 33 -23 0 -14 4 -25
10 -25 5 0 7 6 4 14 -3 8 -1 23 4 33 9 16 12 15 23 -10 l13 -28 13 32 c7 17
13 35 13 40 0 5 -90 9 -200 9 -127 0 -200 -4 -200 -10 0 -5 -22 -10 -50 -10
-27 0 -50 5 -50 10 0 14 -37 12 -44 -2 -5 -10 -7 -10 -12 0 -7 14 -84 17 -84
2 0 -6 -9 -6 -26 0 -34 13 -97 13 -89 0 4 -6 -18 -10 -59 -10 -37 0 -66 4 -66
10 0 6 -224 10 -640 10 l-640 0 0 -80z m580 30 c0 -5 -4 -10 -10 -10 -5 0 -10
5 -10 10 0 6 5 10 10 10 6 0 10 -4 10 -10z m275 -20 c3 -5 1 -10 -4 -10 -6 0
-11 5 -11 10 0 6 2 10 4 10 3 0 8 -4 11 -10z m-665 -40 c0 -5 -11 -10 -25 -10
-14 0 -25 5 -25 10 0 6 11 10 25 10 14 0 25 -4 25 -10z m-90 -24 c0 -3 -4 -8
-10 -11 -5 -3 -10 -1 -10 4 0 6 5 11 10 11 6 0 10 -2 10 -4z"/>
<path d="M2176 2659 c3 -6 1 -15 -6 -19 -7 -5 -10 -15 -6 -25 5 -13 15 -16 41
-13 19 2 36 0 38 -6 2 -5 32 -11 68 -12 35 -1 52 0 37 2 -16 3 -28 12 -28 20
0 19 21 18 65 -3 32 -15 36 -15 48 -1 14 18 47 31 47 19 0 -11 131 -24 164
-15 21 5 26 12 26 35 l0 29 -215 0 c-184 0 -215 -2 -215 -15 0 -8 -5 -15 -11
-15 -6 0 -9 7 -5 15 4 11 -2 15 -25 15 -20 0 -28 -4 -23 -11z"/>
<path d="M2000 2580 c0 -13 11 -13 30 0 12 8 11 10 -7 10 -13 0 -23 -4 -23
-10z"/>
<path d="M43 1948 l-43 -9 0 -333 0 -333 73 5 c46 3 82 0 95 -7 18 -10 22 -9
22 4 0 8 6 15 13 15 10 0 8 -11 -7 -45 -12 -25 -27 -45 -33 -45 -14 0 -17 -10
-14 -52 1 -25 -3 -28 -28 -28 -23 0 -28 4 -25 18 4 12 -9 25 -46 45 l-50 28 0
-50 c0 -49 1 -50 33 -56 32 -6 33 -8 34 -55 1 -47 0 -48 -33 -55 -33 -6 -34
-8 -34 -51 l0 -45 45 7 c25 3 70 3 100 -1 49 -6 55 -9 55 -30 0 -36 31 -46
126 -44 77 2 205 27 222 43 3 4 7 17 7 29 0 20 5 22 78 25 56 2 79 7 83 17 8
21 33 -5 40 -43 4 -19 15 -32 32 -39 l27 -9 -39 -20 c-22 -10 -44 -28 -50 -38
-6 -11 -23 -34 -38 -51 -45 -51 -107 -143 -139 -207 -17 -33 -52 -90 -79 -127
-46 -63 -74 -109 -111 -179 -10 -18 -22 -38 -27 -45 -13 -17 -72 -159 -72
-174 0 -10 60 -13 283 -12 155 1 271 4 257 6 -14 3 -48 11 -77 19 l-52 15 19
32 c11 18 32 48 49 67 28 34 29 34 24 9 -9 -49 58 -76 105 -43 13 9 25 14 27
12 3 -2 6 -30 7 -61 l3 -57 738 0 c405 0 737 3 737 8 0 18 -90 292 -131 395
-21 53 -45 132 -53 175 -17 89 -57 183 -98 230 -15 18 -28 37 -28 42 0 5 -24
22 -52 36 -29 15 -68 42 -86 60 -35 35 -75 44 -112 24 -11 -6 -34 -7 -57 -2
-31 6 -38 12 -38 32 0 26 -1 27 -66 29 -24 0 -38 5 -34 11 7 12 125 14 125 2
0 -5 28 -6 61 -4 45 3 64 1 70 -9 8 -12 11 -12 19 1 5 8 10 24 10 35 0 23 16
52 24 44 3 -3 7 -18 8 -33 l3 -28 85 6 c271 20 338 26 364 32 25 6 28 5 21
-15 -6 -20 -3 -21 69 -21 69 0 76 2 76 20 0 12 7 20 18 21 9 0 1 7 -18 15
l-35 14 35 -4 c19 -2 47 1 63 6 22 8 25 13 16 24 -6 8 -17 14 -23 14 -6 0 -16
10 -21 22 -6 12 -26 27 -45 34 -32 11 -28 12 43 7 l77 -6 0 143 0 142 -37 -6
c-21 -4 -68 -9 -105 -12 -64 -6 -71 -4 -165 39 -75 35 -122 49 -199 61 -56 9
-109 16 -118 16 -25 0 -19 -17 9 -24 30 -8 23 -36 -9 -36 -15 0 -17 3 -7 9 20
13 -5 24 -28 12 -12 -7 -17 -18 -14 -30 7 -28 -37 -55 -76 -46 -36 8 -46 28
-23 47 32 25 77 54 96 61 10 4 16 10 13 13 -5 5 -47 -13 -57 -25 -3 -3 -30
-14 -60 -25 -30 -10 -87 -38 -127 -62 -100 -61 -103 -62 -103 -28 -1 125 -118
303 -239 364 -39 20 -56 22 -140 18 -139 -7 -212 -44 -298 -154 -13 -16 -21
-22 -17 -13 4 12 -27 32 -135 86 -93 46 -141 66 -141 57 0 -8 -9 -14 -21 -14
-14 0 -19 -5 -16 -14 9 -23 -31 -31 -54 -11 -17 16 -19 16 -25 1 -10 -26 -47
-18 -88 18 -30 28 -42 33 -59 27 -19 -8 -22 -5 -24 21 -2 27 0 29 26 26 16 -1
35 2 42 8 8 6 23 14 33 18 26 9 17 15 -50 31 -71 16 -352 25 -411 13z m414
-153 c9 -24 -1 -27 -15 -5 -8 13 -8 20 -2 20 6 0 13 -7 17 -15z m293 -15 c0
-11 -69 -32 -82 -24 -5 3 -4 12 3 20 13 16 79 19 79 4z m-285 -44 c23 -24 45
-57 49 -73 4 -15 9 -36 12 -45 8 -28 -13 -21 -61 19 -51 42 -60 59 -43 82 10
13 10 14 -1 4 -7 -6 -20 -9 -27 -6 -9 3 -14 -2 -14 -12 0 -15 -2 -15 -16 -4
-11 9 -12 15 -5 17 9 3 9 7 0 18 -9 11 -6 14 16 14 23 0 26 2 15 15 -10 13 -9
15 10 15 13 0 39 -18 65 -44z m172 5 c4 -16 11 -18 37 -14 24 4 35 1 39 -10
14 -36 -64 -55 -105 -25 -32 23 -35 36 -10 54 24 18 33 17 39 -5z m33 -113 c0
-17 -3 -18 -15 -8 -8 7 -15 19 -15 26 0 8 6 11 15 8 8 -4 15 -15 15 -26z
m-190 -40 c0 -13 -23 -5 -28 10 -2 7 2 10 12 6 9 -3 16 -11 16 -16z m1680 -27
c0 -12 -28 -22 -34 -12 -3 5 -3 11 1 15 9 9 33 7 33 -3z m-1585 -10 c3 -5 1
-12 -5 -16 -5 -3 -10 1 -10 9 0 18 6 21 15 7z m41 -48 c-6 -6 -36 9 -36 18 0
5 9 4 20 -3 10 -7 18 -14 16 -15z m81 -60 c-3 -10 -5 -4 -5 12 0 17 2 24 5 18
2 -7 2 -21 0 -30z m1289 12 c-8 -8 -17 -15 -20 -15 -3 0 -3 7 0 15 4 8 13 15
21 15 12 0 12 -2 -1 -15z m320 5 c15 -6 24 -13 21 -16 -3 -3 -15 0 -27 6 -33
18 -48 -2 -26 -35 10 -15 15 -29 12 -32 -8 -9 -57 7 -51 16 6 11 -23 23 -36
15 -5 -3 -9 2 -9 10 0 10 6 13 15 10 10 -4 15 0 15 15 0 17 6 21 29 21 16 0
42 -5 57 -10z m139 -17 c10 -14 10 -21 -2 -40 -9 -13 -20 -23 -26 -23 -6 0 -7
3 -4 7 9 9 -33 53 -50 53 -14 0 -17 12 -5 24 12 13 73 -2 87 -21z m-1514 -57
c2 -37 -1 -51 -11 -54 -8 -3 -19 -10 -23 -16 -6 -8 -10 -7 -14 1 -6 17 -43 -2
-43 -22 0 -8 -11 -22 -25 -31 -20 -13 -28 -14 -40 -4 -10 9 -15 9 -15 1 0 -6
-4 -11 -10 -11 -5 0 -10 6 -10 14 0 7 -7 19 -15 26 -14 12 -13 16 5 35 26 28
18 34 -38 31 -45 -2 -65 10 -41 25 8 5 26 9 42 9 15 0 27 4 27 10 0 5 10 9 23
8 34 -2 132 21 153 37 24 17 31 6 35 -59z m959 62 c0 -28 -16 -38 -48 -32 -25
5 -30 9 -21 20 9 11 20 15 62 23 4 0 7 -5 7 -11z m80 -39 c0 -5 -4 -9 -10 -9
-5 0 -10 7 -10 16 0 8 5 12 10 9 6 -3 10 -10 10 -16z m-105 -19 c3 -6 -1 -7
-9 -4 -18 7 -21 14 -7 14 6 0 13 -4 16 -10z m515 0 c0 -5 -7 -10 -15 -10 -8 0
-15 5 -15 10 0 6 7 10 15 10 8 0 15 -4 15 -10z m-572 -14 c-7 -8 -15 -12 -17
-11 -5 6 10 25 20 25 5 0 4 -6 -3 -14z m569 -34 c-18 -19 -27 -39 -27 -60 0
-22 -5 -32 -15 -32 -12 0 -14 9 -11 36 5 35 26 65 56 77 25 9 25 8 -3 -21z
m-627 -2 c32 -9 31 -9 -13 -5 -27 3 -56 10 -65 16 -18 11 5 8 78 -11z m23 -27
c-7 -2 -19 -2 -25 0 -7 3 -2 5 12 5 14 0 19 -2 13 -5z m39 -30 c21 -9 35 -20
32 -25 -3 -4 -9 -6 -14 -3 -5 3 -39 8 -75 10 -71 5 -85 9 -85 29 0 17 92 10
142 -11z m-1392 11 c0 -3 -7 -12 -15 -20 -8 -9 -15 -13 -15 -11 0 3 -3 12 -6
21 -4 12 0 16 15 16 12 0 21 -3 21 -6z m-107 -11 c-7 -2 -21 -2 -30 0 -10 3
-4 5 12 5 17 0 24 -2 18 -5z m1370 -37 c4 -10 1 -13 -9 -9 -15 6 -19 23 -5 23
5 0 11 -7 14 -14z m265 -3 c-10 -2 -26 -2 -35 0 -10 3 -2 5 17 5 19 0 27 -2
18 -5z m-968 -23 c0 -13 -5 -18 -14 -14 -8 3 -12 12 -9 20 8 21 23 17 23 -6z
m1094 -7 c-4 -16 -8 -38 -8 -50 -1 -25 -12 -28 -51 -13 -23 9 -25 13 -15 25 7
8 21 15 32 15 16 0 19 5 16 25 -4 20 -1 25 14 25 17 0 19 -4 12 -27z m433 11
c-3 -3 -12 -4 -19 -1 -8 3 -5 6 6 6 11 1 17 -2 13 -5z m-1568 -54 c41 0 60 -4
64 -14 4 -9 -3 -16 -16 -20 -17 -5 -19 -8 -9 -15 8 -4 12 -19 10 -32 -3 -23
-7 -24 -78 -26 -41 0 -82 1 -92 3 -25 7 -30 32 -12 60 9 13 12 24 7 24 -15 0
-33 -23 -33 -41 0 -17 -35 -49 -53 -49 -5 0 -7 16 -6 34 2 19 0 38 -4 42 -4 4
-7 13 -7 21 0 9 16 13 55 13 48 0 55 3 55 19 0 29 33 31 48 4 11 -20 20 -23
71 -23z m1521 21 c14 -7 33 -25 42 -42 17 -29 17 -29 -8 -29 -18 0 -25 5 -23
18 3 31 -1 40 -17 46 -19 7 -54 -20 -54 -41 0 -19 -121 -7 -175 18 -22 10 -47
20 -55 23 -8 2 12 2 45 -1 50 -4 63 -2 75 12 12 14 26 17 80 12 36 -2 76 -10
90 -16z m-565 -1 c-3 -5 -11 -10 -16 -10 -6 0 -7 5 -4 10 3 6 11 10 16 10 6 0
7 -4 4 -10z m-37 -7 c-1 -5 4 -32 10 -62 7 -30 11 -56 9 -58 -2 -2 -15 5 -28
15 -13 11 -39 27 -56 36 -18 9 -33 22 -33 29 0 8 15 21 33 30 34 17 68 22 65
10z m270 -25 c18 -18 15 -48 -5 -48 -31 0 -46 16 -38 39 7 23 25 27 43 9z
m-178 -7 c0 -6 -4 -13 -10 -16 -5 -3 -10 1 -10 9 0 9 5 16 10 16 6 0 10 -4 10
-9z m-1283 -78 c-12 -12 -18 -13 -36 -1 -27 16 -27 28 -1 28 13 0 25 11 33 27
l12 28 3 -34 c2 -20 -2 -40 -11 -48z m1593 57 c0 -5 -4 -10 -9 -10 -6 0 -13 5
-16 10 -3 6 1 10 9 10 9 0 16 -4 16 -10z m-1817 -47 c35 -28 52 -58 37 -68 -4
-3 -59 -7 -121 -11 -63 -3 -117 -8 -121 -10 -5 -3 -39 -2 -77 2 l-70 6 1 49 1
49 47 0 c54 0 67 -8 42 -26 -15 -12 -14 -13 12 -14 21 0 27 4 22 15 -7 20 41
33 125 34 57 1 70 -3 102 -26z m584 -10 c-3 -10 -5 -4 -5 12 0 17 2 24 5 18 2
-7 2 -21 0 -30z m1433 27 c0 -5 -2 -10 -4 -10 -3 0 -8 5 -11 10 -3 6 -1 10 4
10 6 0 11 -4 11 -10z m-1410 -75 c0 -8 -2 -15 -4 -15 -2 0 -6 7 -10 15 -3 8
-1 15 4 15 6 0 10 -7 10 -15z m-93 -11 c-3 -3 -12 -4 -19 -1 -8 3 -5 6 6 6 11
1 17 -2 13 -5z m137 -9 c3 -8 1 -15 -3 -15 -5 0 -11 7 -15 15 -3 8 -1 15 3 15
5 0 11 -7 15 -15z"/>
<path d="M845 1370 c-12 -19 5 -31 27 -19 17 9 18 13 7 20 -18 11 -26 11 -34
-1z"/>
<path d="M763 1356 c3 -7 -1 -24 -10 -35 -8 -12 -12 -25 -8 -29 3 -3 10 0 15
8 8 13 10 12 10 -3 0 -14 6 -18 28 -15 24 3 27 7 25 37 -1 35 -15 51 -47 51
-11 0 -16 -5 -13 -14z m42 -36 c3 -5 1 -10 -4 -10 -6 0 -11 5 -11 10 0 6 2 10
4 10 3 0 8 -4 11 -10z"/>
<path d="M2306 1191 c-4 -5 -2 -12 3 -15 5 -4 12 -2 15 3 4 5 2 12 -3 15 -5 4
-12 2 -15 -3z"/>
<path d="M530 1902 c0 -6 -9 -14 -21 -17 -19 -7 -20 -7 -2 -21 26 -20 42 -17
38 7 -3 16 0 19 15 14 12 -4 20 -2 20 4 0 6 -4 11 -9 11 -5 0 -16 3 -25 6 -9
3 -16 1 -16 -4z"/>
<path d="M522 1818 c3 -7 15 -14 29 -16 23 -2 23 -2 5 13 -24 18 -39 20 -34 3z"/>
<path d="M1998 1573 c7 -3 16 -2 19 1 4 3 -2 6 -13 5 -11 0 -14 -3 -6 -6z"/>
<path d="M70 1260 c-9 -6 -10 -10 -3 -10 6 0 15 5 18 10 8 12 4 12 -15 0z"/>
<path d="M138 1263 c7 -3 16 -2 19 1 4 3 -2 6 -13 5 -11 0 -14 -3 -6 -6z"/>
<path d="M2195 1031 c-3 -7 -15 -9 -25 -6 -10 3 -21 1 -25 -5 -3 -5 -30 -10
-58 -11 -48 -1 -50 -1 -22 -11 34 -11 351 -2 387 11 18 7 13 9 -32 14 -145 17
-218 19 -225 8z m212 -17 c-3 -3 -12 -4 -19 -1 -8 3 -5 6 6 6 11 1 17 -2 13
-5z"/>
<path d="M2623 173 c9 -2 25 -2 35 0 9 3 1 5 -18 5 -19 0 -27 -2 -17 -5z"/>
</g>
</svg>
