<?xml version="1.0" standalone="no"?>
<!DOCTYPE svg PUBLIC "-//W3C//DTD SVG 20010904//EN"
 "http://www.w3.org/TR/2001/REC-SVG-20010904/DTD/svg10.dtd">
<svg version="1.0" xmlns="http://www.w3.org/2000/svg"
 width="1105.000000pt" height="1423.000000pt" viewBox="0 0 1105.000000 1423.000000"
 preserveAspectRatio="xMidYMid meet">

<g transform="translate(0.000000,1423.000000) scale(0.100000,-0.100000)"
fill="#000000" stroke="none">
<path d="M5140 14063 c-265 -28 -523 -170 -649 -358 -56 -83 -114 -243 -126
-350 -4 -33 -16 -80 -27 -104 l-20 -44 27 -156 c15 -86 30 -182 34 -214 4 -32
12 -62 18 -65 6 -4 18 -43 27 -87 51 -239 123 -409 218 -520 27 -32 102 -104
138 -133 14 -11 23 -22 20 -24 -136 -100 -227 -143 -430 -208 -334 -105 -446
-143 -500 -170 -61 -31 -100 -64 -100 -84 0 -7 -51 -64 -112 -127 -83 -84
-128 -139 -168 -207 -30 -51 -68 -114 -84 -140 -16 -26 -67 -119 -113 -207
-47 -88 -107 -191 -134 -230 -27 -38 -66 -96 -87 -128 -58 -91 -242 -378 -295
-463 -77 -122 -193 -353 -218 -434 -59 -194 -5 -428 121 -524 82 -62 315 -146
628 -225 l182 -46 5 -120 c3 -66 12 -192 21 -280 9 -88 19 -218 23 -290 7
-126 9 -134 55 -242 68 -161 129 -211 324 -264 60 -16 82 -26 82 -39 0 -9 -9
-56 -20 -106 -10 -49 -24 -143 -30 -209 -6 -66 -15 -167 -21 -225 -29 -297
-29 -1185 2 -1680 7 -119 10 -316 6 -505 -8 -516 18 -1174 63 -1570 17 -148
32 -277 35 -285 2 -8 6 -31 9 -50 88 -712 142 -902 332 -1177 35 -50 64 -96
64 -101 0 -5 -20 -44 -45 -88 -25 -43 -45 -85 -45 -94 0 -48 29 -101 104 -192
82 -99 83 -100 106 -201 29 -129 44 -165 71 -175 13 -5 29 -27 40 -58 16 -42
17 -57 8 -109 -18 -99 -68 -244 -120 -345 -55 -108 -65 -151 -74 -302 l-6
-108 484 0 485 0 6 23 c3 12 6 59 6 103 0 76 2 83 25 98 41 27 49 80 50 336
l0 235 32 50 c17 28 49 83 69 123 35 66 39 84 44 170 4 67 13 111 28 144 22
50 44 179 35 206 -4 10 -14 28 -23 42 -18 26 -37 59 -97 167 -28 50 -36 80
-45 156 l-11 95 46 63 c83 114 100 149 105 205 7 88 -3 114 -72 191 -137 152
-161 207 -141 323 18 102 34 260 41 410 7 127 -3 239 -32 369 -8 35 -12 66
-10 68 2 3 19 -9 37 -25 33 -29 34 -31 31 -104 -3 -68 0 -81 37 -166 22 -50
41 -109 42 -129 2 -49 -18 -218 -31 -263 -11 -37 2 -136 22 -174 17 -31 43
-50 175 -127 139 -81 121 -48 142 -259 6 -58 17 -134 26 -170 13 -52 16 -117
16 -325 0 -400 12 -626 40 -704 28 -82 84 -140 165 -172 52 -20 76 -23 204
-23 126 0 152 3 201 22 123 49 179 113 231 264 27 81 32 110 36 223 5 145 -17
378 -48 510 -24 100 -46 217 -60 318 l-11 77 44 50 c70 78 81 108 74 212 l-6
89 63 104 c80 132 116 221 123 306 7 79 -6 119 -71 219 -72 111 -76 118 -76
149 0 16 5 42 11 58 20 53 26 126 17 207 -9 78 -42 210 -58 231 -4 6 -22 51
-40 100 l-32 90 6 170 c19 480 56 1087 75 1215 5 36 16 110 24 165 9 55 18
147 21 205 12 209 26 356 41 425 37 175 37 172 21 236 -9 33 -16 95 -16 137 0
42 -7 131 -15 197 -8 66 -15 150 -15 187 0 37 -4 98 -10 135 -5 38 -14 120
-21 183 -11 123 -34 268 -49 312 -7 23 -5 29 16 43 13 8 24 20 24 26 0 6 18
31 40 57 22 25 43 56 46 69 5 18 11 22 23 17 48 -22 91 -16 151 19 l59 36 38
-31 c21 -17 54 -41 73 -54 34 -22 101 -70 282 -198 112 -80 216 -164 248 -199
20 -23 34 -29 65 -29 22 0 43 6 49 14 6 8 24 29 39 47 l28 33 95 -73 c179
-139 274 -209 441 -326 73 -51 84 -49 133 21 38 56 38 79 -1 107 -26 18 -33
19 -40 8 -8 -11 -9 -11 -7 2 2 10 -21 34 -59 64 -35 26 -63 50 -63 54 0 13
-149 121 -168 121 -13 0 -217 143 -252 177 -3 2 3 11 13 18 20 15 47 92 47
135 0 32 -38 62 -80 64 -16 1 -52 20 -85 46 -32 25 -81 63 -109 85 -28 22 -77
60 -109 83 -38 28 -57 49 -53 58 8 20 -11 64 -27 64 -7 0 -21 6 -31 13 -17 12
-13 16 40 37 100 40 256 119 328 168 78 53 109 104 120 202 10 86 -39 312
-108 492 l-25 67 29 81 c39 104 38 144 -4 244 -18 45 -57 162 -86 261 -97 330
-215 667 -294 838 -20 43 -43 102 -50 130 -76 286 -93 338 -154 475 -53 118
-110 208 -166 261 -20 19 -36 40 -36 46 0 6 -17 28 -37 49 -39 40 -108 78
-210 116 -47 17 -63 27 -63 41 0 20 -55 49 -158 83 -44 15 -55 16 -69 4 -12
-9 -15 -9 -9 0 4 7 2 12 -8 12 -8 0 -18 -5 -21 -10 -12 -20 -201 11 -355 57
-66 20 -96 36 -133 69 -27 24 -64 49 -83 56 -44 16 -144 151 -144 195 0 15 -4
34 -9 42 -7 11 3 29 36 65 127 142 152 268 134 691 -8 191 -11 217 -36 285
-14 41 -31 92 -37 113 -6 20 -14 37 -19 37 -5 0 -15 16 -23 35 -108 256 -369
461 -646 504 -78 12 -211 19 -260 14z m920 -587 c0 -2 -8 -10 -17 -17 -16 -13
-17 -12 -4 4 13 16 21 21 21 13z m20 -26 c0 -5 -4 -10 -10 -10 -5 0 -10 5 -10
10 0 6 5 10 10 10 6 0 10 -4 10 -10z m-4 -56 c18 -14 18 -14 -6 -3 -31 14 -36
19 -24 19 6 0 19 -7 30 -16z m-1700 -300 c27 -206 78 -407 121 -479 22 -36 22
-37 2 -15 -53 61 -96 202 -133 430 -27 172 -30 196 -16 184 6 -6 18 -60 26
-120z m2584 -1282 c0 -5 -7 -9 -15 -9 -8 0 -12 4 -9 9 3 4 9 8 15 8 5 0 9 -4
9 -8z m-1000 -1358 c0 -2 -9 0 -20 6 -11 6 -20 13 -20 16 0 2 9 0 20 -6 11 -6
20 -13 20 -16z m135 -79 l20 -16 -20 10 c-11 5 -29 17 -40 26 l-20 16 20 -10
c11 -5 29 -17 40 -26z m65 -41 c0 -2 -9 0 -20 6 -11 6 -20 13 -20 16 0 2 9 0
20 -6 11 -6 20 -13 20 -16z m-2274 -328 c-46 -82 -47 -118 -4 -158 82 -77 132
-74 242 12 41 33 77 64 81 69 17 28 20 -4 20 -192 0 -246 -2 -251 -85 -241
-130 15 -340 76 -475 138 -57 26 -64 36 -41 55 7 6 30 39 52 74 57 93 234 320
243 312 2 -2 -13 -33 -33 -69z m1834 -532 c0 -2 -9 0 -20 6 -11 6 -20 13 -20
16 0 2 9 0 20 -6 11 -6 20 -13 20 -16z m172 -182 c40 -26 103 -76 106 -84 5
-11 32 -10 32 1 0 5 -6 12 -12 14 -8 3 -8 6 -2 6 6 1 21 -8 34 -19 13 -11 29
-20 37 -20 7 0 17 -8 20 -17 4 -10 15 -27 25 -37 19 -21 15 -37 -4 -18 -19 19
-29 14 -16 -8 7 -11 19 -20 26 -20 10 0 10 -3 0 -14 -11 -11 -15 -9 -25 15 -7
16 -17 29 -23 29 -5 0 -10 5 -10 11 0 5 5 7 10 4 6 -3 10 -2 10 4 0 18 -54 52
-74 47 -11 -3 -26 2 -35 13 -9 10 -45 39 -80 64 -61 45 -75 66 -19 29z m88
-34 c0 -12 -6 -9 -26 13 -19 22 -19 22 4 8 12 -8 22 -17 22 -21z m560 -309 c0
-6 -6 -9 -14 -6 -8 3 -24 -5 -35 -17 l-22 -23 26 -17 c14 -9 25 -14 25 -11 0
4 10 -1 22 -9 27 -19 42 -21 32 -3 -5 8 -2 8 9 -2 9 -7 17 -21 17 -31 0 -21
29 -22 53 -2 21 18 23 36 2 28 -8 -3 -14 -1 -12 4 2 10 -62 70 -75 70 -5 0 -8
4 -8 9 0 13 49 -14 92 -52 l38 -32 -35 -38 c-29 -32 -37 -36 -49 -25 -30 28
-57 48 -65 48 -5 0 -11 4 -13 9 -1 4 -20 17 -41 27 l-37 19 29 33 c29 32 61
43 61 21z m-19 -46 c13 -16 12 -17 -3 -4 -10 7 -18 15 -18 17 0 8 8 3 21 -13z
m231 -90 c18 -16 42 -37 53 -47 18 -17 16 -17 -17 2 -21 11 -46 18 -57 15 -12
-3 -28 0 -36 7 -9 7 -18 10 -22 6 -10 -10 37 -45 53 -39 8 3 14 0 14 -6 0 -6
-4 -11 -10 -11 -5 0 -10 -5 -10 -12 0 -9 3 -9 11 -1 6 6 18 9 26 6 13 -5 13
-2 4 18 -10 20 -10 21 1 8 9 -10 27 -15 56 -13 30 1 42 -2 42 -12 0 -16 -45
-19 -55 -4 -3 6 -10 10 -16 10 -5 0 -4 -9 3 -20 17 -27 -3 -50 -27 -30 -13 11
-14 10 -8 -6 5 -14 -4 -10 -35 14 -47 38 -59 52 -41 52 8 0 8 4 -1 15 -10 12
-15 13 -20 4 -5 -6 -10 -7 -13 -2 -6 10 49 73 63 73 5 0 23 -12 42 -27z m192
-145 c114 -92 237 -186 371 -284 72 -52 145 -108 163 -124 19 -17 61 -49 93
-72 32 -22 59 -45 59 -51 0 -6 -5 -6 -12 0 -109 82 -138 103 -138 95 0 -6 -7
-12 -15 -16 -13 -5 -14 -2 -4 15 11 22 0 38 -28 39 -7 0 -27 15 -46 33 -18 17
-44 39 -57 47 -13 8 -32 23 -42 33 -20 19 -23 15 -8 -14 6 -10 17 -19 24 -19
7 0 21 -9 31 -20 22 -24 9 -27 -17 -3 -13 11 -18 12 -18 3 0 -16 -35 28 -44
56 -3 11 -30 39 -59 62 -28 23 -57 46 -63 51 -7 6 -14 7 -17 4 -3 -3 -18 8
-32 23 l-27 29 21 -32 c18 -27 19 -35 10 -57 -11 -23 -13 -24 -24 -9 -7 10
-10 24 -7 32 3 9 1 12 -6 7 -21 -13 -35 5 -15 20 14 11 10 11 -20 -1 -36 -15
-39 -15 -72 11 -19 14 -33 30 -30 34 7 11 -15 60 -27 60 -8 0 -12 -16 -9 -33
1 -5 -3 -6 -9 -2 -6 3 -8 10 -5 15 3 4 -3 14 -12 21 -12 10 -14 10 -9 2 12
-21 1 -15 -35 18 -19 17 -26 29 -17 26 12 -4 15 -2 11 9 -8 23 22 17 55 -11
36 -30 38 -30 44 -7 4 13 -3 22 -23 31 -16 7 -27 17 -23 22 9 16 21 10 88 -43z
m111 2 c3 -6 -1 -7 -9 -4 -18 7 -21 14 -7 14 6 0 13 -4 16 -10z m76 -203 c-14
-14 -14 -37 0 -37 5 0 8 4 5 9 -11 17 27 21 46 5 17 -16 17 -19 2 -35 -14 -16
-14 -18 6 -29 18 -10 24 -9 31 1 6 11 11 11 21 1 9 -9 8 -12 -7 -12 -15 0 -16
-3 -7 -12 16 -16 15 -32 0 -18 -37 30 -91 60 -100 54 -7 -5 -8 -2 -4 5 5 7 1
17 -9 24 -13 10 -14 18 -6 40 6 16 16 25 22 21 8 -4 8 -9 0 -17z m-86 -35 c-3
-3 -11 0 -18 7 -9 10 -8 11 6 5 10 -3 15 -9 12 -12z m228 -150 c48 -36 85 -67
82 -70 -3 -3 -15 4 -28 15 -12 11 -52 41 -89 66 -37 26 -70 52 -74 59 -10 16
7 5 109 -70z m28 11 c13 -16 12 -17 -3 -4 -10 7 -18 15 -18 17 0 8 8 3 21 -13z
m99 -33 c0 -5 -2 -10 -4 -10 -3 0 -8 5 -11 10 -3 6 -1 10 4 10 6 0 11 -4 11
-10z m-15 -20 c3 -5 1 -10 -4 -10 -6 0 -11 5 -11 10 0 6 2 10 4 10 3 0 8 -4
11 -10z m50 -26 c1 -28 -3 -29 -29 -9 -19 15 -19 15 3 15 18 0 22 4 17 17 -4
10 -3 14 1 9 4 -4 8 -19 8 -32z m-32 -26 c19 -9 318 -231 351 -259 6 -6 42
-33 79 -60 38 -28 66 -53 63 -56 -3 -3 -27 12 -53 34 -26 21 -58 45 -70 53
-12 8 -94 70 -182 137 -88 67 -174 129 -191 138 -16 8 -30 18 -30 20 0 8 10 6
33 -7z m427 -90 c0 -14 -89 55 -90 70 0 7 20 -3 45 -24 25 -20 45 -41 45 -46z
m-275 52 c3 -5 1 -10 -4 -10 -6 0 -11 5 -11 10 0 6 2 10 4 10 3 0 8 -4 11 -10z
m7 -37 c17 -15 19 -15 33 3 13 17 14 17 15 2 0 -10 5 -15 13 -12 18 6 92 -77
77 -86 -8 -5 1 -15 23 -29 35 -21 79 -65 47 -46 -28 16 -120 87 -120 92 0 3 7
0 15 -7 24 -20 29 -4 8 24 -21 29 -33 33 -33 10 0 -9 -4 -14 -8 -12 -22 9
-101 64 -102 71 0 12 12 8 32 -10z m129 -20 c13 -16 12 -17 -3 -4 -10 7 -18
15 -18 17 0 8 8 3 21 -13z m180 -7 c5 3 8 0 7 -7 -2 -7 6 -15 17 -17 11 -2 31
-17 44 -33 23 -28 50 -41 35 -17 -4 7 7 2 24 -10 31 -23 58 -53 32 -37 -9 6
-11 4 -6 -4 5 -7 14 -10 22 -7 8 3 14 1 14 -4 0 -17 -31 -11 -63 12 -90 63
-156 121 -150 131 5 8 8 8 11 -1 2 -7 8 -10 13 -6z m-24 -46 c70 -53 70 -70 0
-21 -43 29 -86 71 -73 71 4 0 37 -22 73 -50z m-31 -35 c47 -36 90 -65 94 -65
12 0 6 -83 -6 -87 -16 -5 -37 24 -30 43 3 8 10 12 16 9 5 -3 10 3 10 14 0 12
-4 21 -10 21 -5 0 -10 -6 -10 -14 0 -8 -7 -16 -15 -20 -8 -3 -15 -1 -15 5 0 6
-9 8 -21 4 -13 -4 -19 -3 -15 3 3 5 -10 26 -30 46 -19 20 -34 44 -32 53 2 13
-3 17 -17 16 -11 -1 -14 0 -7 3 10 5 9 11 -5 27 -24 27 -11 19 93 -58z m195
-85 c19 -11 27 -40 11 -40 -5 0 -19 11 -32 25 -24 26 -14 33 21 15z m127 -45
c-3 -3 -9 2 -12 12 -6 14 -5 15 5 6 7 -7 10 -15 7 -18z m-183 -15 c-16 -16
-33 -30 -39 -30 -5 0 3 14 19 30 16 17 33 30 39 30 5 0 -3 -13 -19 -30z m26
-40 c5 0 9 -4 9 -9 0 -4 -11 -6 -25 -3 -14 2 -25 9 -25 14 0 6 7 7 16 4 9 -3
20 -6 25 -6z m44 -10 c3 -5 1 -10 -4 -10 -6 0 -11 5 -11 10 0 6 2 10 4 10 3 0
8 -4 11 -10z m127 -143 c20 -8 39 -12 43 -9 4 4 5 0 3 -8 -2 -9 3 -14 12 -12
11 3 12 0 4 -8 -12 -12 -64 15 -113 60 -15 14 -18 18 -6 8 11 -9 37 -23 57
-31z m98 -47 c0 -5 -5 -10 -11 -10 -5 0 -7 5 -4 10 3 6 8 10 11 10 2 0 4 -4 4
-10z m-30 -20 c0 -5 -4 -10 -10 -10 -5 0 -10 5 -10 10 0 6 5 10 10 10 6 0 10
-4 10 -10z m105 -81 c16 -25 -4 -14 -50 27 l-50 45 47 -30 c26 -17 50 -36 53
-42z m-395 46 c7 -9 10 -18 6 -22 -3 -3 -6 -1 -6 6 0 8 -8 11 -20 8 -13 -3
-20 0 -20 9 0 19 24 18 40 -1z m441 -72 c13 -16 12 -17 -3 -4 -10 7 -18 15
-18 17 0 8 8 3 21 -13z m115 -84 c10 -17 -25 6 -66 42 l-35 31 47 -31 c26 -17
50 -36 54 -42z m109 -69 c30 -22 58 -40 64 -40 5 0 12 -7 15 -16 4 -11 13 -13
28 -8 23 7 23 6 4 -15 -15 -17 -21 -18 -30 -7 -6 7 -49 41 -95 76 -60 45 -79
65 -70 71 9 5 17 3 22 -7 4 -8 32 -32 62 -54z"/>
<path d="M6696 8811 c-3 -5 1 -11 9 -14 9 -4 12 -1 8 9 -6 16 -10 17 -17 5z"/>
<path d="M6690 8740 c0 -5 5 -10 10 -10 6 0 10 5 10 10 0 6 -4 10 -10 10 -5 0
-10 -4 -10 -10z"/>
<path d="M6835 8660 c3 -5 8 -10 11 -10 2 0 4 5 4 10 0 6 -5 10 -11 10 -5 0
-7 -4 -4 -10z"/>
<path d="M6930 8640 c0 -5 5 -10 10 -10 6 0 10 5 10 10 0 6 -4 10 -10 10 -5 0
-10 -4 -10 -10z"/>
<path d="M6992 8596 c21 -20 43 -36 49 -36 14 0 -36 46 -66 61 -11 6 -3 -6 17
-25z"/>
<path d="M6932 8564 c-14 -16 -5 -18 17 -5 7 5 9 11 5 14 -5 3 -15 -1 -22 -9z"/>
<path d="M6992 8546 c7 -8 15 -12 17 -11 5 6 -10 25 -20 25 -5 0 -4 -6 3 -14z"/>
<path d="M6950 8541 c0 -12 29 -35 36 -28 4 3 -1 13 -9 22 -17 17 -27 19 -27
6z"/>
<path d="M7066 8485 c-3 -8 -1 -15 4 -15 6 0 10 7 10 15 0 8 -2 15 -4 15 -2 0
-6 -7 -10 -15z"/>
<path d="M7153 8426 c-6 -8 -9 -17 -6 -20 12 -11 19 -6 20 14 2 23 2 23 -14 6z"/>
<path d="M7595 8090 c3 -5 8 -10 11 -10 2 0 4 5 4 10 0 6 -5 10 -11 10 -5 0
-7 -4 -4 -10z"/>
<path d="M7620 8084 c0 -8 5 -12 10 -9 6 4 8 11 5 16 -9 14 -15 11 -15 -7z"/>
<path d="M7980 7991 c0 -5 7 -11 15 -15 8 -3 15 -1 15 3 0 5 -7 11 -15 15 -8
3 -15 1 -15 -3z"/>
<path d="M7760 8013 c0 -5 23 -20 50 -35 38 -22 48 -32 43 -45 -6 -16 -5 -16
11 -4 19 16 19 16 -43 60 -44 31 -61 38 -61 24z"/>
<path d="M7807 7963 c-3 -4 1 -14 9 -20 7 -7 15 -9 18 -4 3 5 -1 14 -8 20 -8
7 -16 8 -19 4z"/>
<path d="M7880 7881 c0 -10 19 -25 25 -20 1 2 -3 10 -11 17 -8 7 -14 8 -14 3z"/>
</g>
</svg>
